<mxfile host="app.diagrams.net" modified="2024-02-05T23:16:08.722Z" agent="Mozilla/5.0 (Windows NT 10.0; Win64; x64) AppleWebKit/537.36 (KHTML, like Gecko) Chrome/121.0.0.0 Safari/537.36" etag="vSi-cMJHgJV5R9zGp8sb" scale="1" border="0" version="23.0.2" type="device">
  <diagram id="JIO4U5yVURzNJD8ckPtT" name="Page-1">
    <mxGraphModel dx="882" dy="578" grid="1" gridSize="10" guides="1" tooltips="1" connect="1" arrows="1" fold="1" page="1" pageScale="1" pageWidth="850" pageHeight="1100" math="0" shadow="0">
      <root>
        <mxCell id="0" />
        <mxCell id="1" parent="0" />
        <mxCell id="0w6tVqdGQsQ0FDEPdYHO-1" value="" style="swimlane;startSize=0;" vertex="1" parent="1">
          <mxGeometry x="40" y="160" width="760" height="280" as="geometry" />
        </mxCell>
        <mxCell id="0w6tVqdGQsQ0FDEPdYHO-10" style="edgeStyle=orthogonalEdgeStyle;rounded=0;orthogonalLoop=1;jettySize=auto;html=1;exitX=0.5;exitY=1;exitDx=0;exitDy=0;entryX=0.5;entryY=0;entryDx=0;entryDy=0;" edge="1" parent="0w6tVqdGQsQ0FDEPdYHO-1" source="0w6tVqdGQsQ0FDEPdYHO-3" target="0w6tVqdGQsQ0FDEPdYHO-4">
          <mxGeometry relative="1" as="geometry" />
        </mxCell>
        <mxCell id="0w6tVqdGQsQ0FDEPdYHO-3" value="Dataset construction" style="rounded=1;whiteSpace=wrap;html=1;" vertex="1" parent="0w6tVqdGQsQ0FDEPdYHO-1">
          <mxGeometry x="40" y="40" width="120" height="60" as="geometry" />
        </mxCell>
        <mxCell id="0w6tVqdGQsQ0FDEPdYHO-11" style="edgeStyle=orthogonalEdgeStyle;rounded=0;orthogonalLoop=1;jettySize=auto;html=1;exitX=1;exitY=0.5;exitDx=0;exitDy=0;entryX=0;entryY=0.5;entryDx=0;entryDy=0;" edge="1" parent="0w6tVqdGQsQ0FDEPdYHO-1" source="0w6tVqdGQsQ0FDEPdYHO-4" target="0w6tVqdGQsQ0FDEPdYHO-5">
          <mxGeometry relative="1" as="geometry" />
        </mxCell>
        <mxCell id="0w6tVqdGQsQ0FDEPdYHO-4" value="Training dataset" style="rounded=1;whiteSpace=wrap;html=1;" vertex="1" parent="0w6tVqdGQsQ0FDEPdYHO-1">
          <mxGeometry x="40" y="160" width="120" height="60" as="geometry" />
        </mxCell>
        <mxCell id="0w6tVqdGQsQ0FDEPdYHO-12" style="edgeStyle=orthogonalEdgeStyle;rounded=0;orthogonalLoop=1;jettySize=auto;html=1;exitX=0.5;exitY=1;exitDx=0;exitDy=0;" edge="1" parent="0w6tVqdGQsQ0FDEPdYHO-1" source="0w6tVqdGQsQ0FDEPdYHO-5" target="0w6tVqdGQsQ0FDEPdYHO-6">
          <mxGeometry relative="1" as="geometry" />
        </mxCell>
        <mxCell id="0w6tVqdGQsQ0FDEPdYHO-5" value="Learner" style="rounded=1;whiteSpace=wrap;html=1;" vertex="1" parent="0w6tVqdGQsQ0FDEPdYHO-1">
          <mxGeometry x="240" y="40" width="120" height="60" as="geometry" />
        </mxCell>
        <mxCell id="0w6tVqdGQsQ0FDEPdYHO-13" style="edgeStyle=orthogonalEdgeStyle;rounded=0;orthogonalLoop=1;jettySize=auto;html=1;exitX=1;exitY=0.25;exitDx=0;exitDy=0;entryX=0;entryY=0.5;entryDx=0;entryDy=0;" edge="1" parent="0w6tVqdGQsQ0FDEPdYHO-1" source="0w6tVqdGQsQ0FDEPdYHO-6" target="0w6tVqdGQsQ0FDEPdYHO-7">
          <mxGeometry relative="1" as="geometry" />
        </mxCell>
        <mxCell id="0w6tVqdGQsQ0FDEPdYHO-14" style="edgeStyle=orthogonalEdgeStyle;rounded=0;orthogonalLoop=1;jettySize=auto;html=1;exitX=1;exitY=0.75;exitDx=0;exitDy=0;entryX=0;entryY=0.5;entryDx=0;entryDy=0;" edge="1" parent="0w6tVqdGQsQ0FDEPdYHO-1" source="0w6tVqdGQsQ0FDEPdYHO-6" target="0w6tVqdGQsQ0FDEPdYHO-8">
          <mxGeometry relative="1" as="geometry" />
        </mxCell>
        <mxCell id="0w6tVqdGQsQ0FDEPdYHO-6" value="Trained model" style="rounded=1;whiteSpace=wrap;html=1;" vertex="1" parent="0w6tVqdGQsQ0FDEPdYHO-1">
          <mxGeometry x="240" y="160" width="120" height="60" as="geometry" />
        </mxCell>
        <mxCell id="0w6tVqdGQsQ0FDEPdYHO-7" value="Model repository" style="rounded=1;whiteSpace=wrap;html=1;" vertex="1" parent="0w6tVqdGQsQ0FDEPdYHO-1">
          <mxGeometry x="440" y="40" width="120" height="60" as="geometry" />
        </mxCell>
        <mxCell id="0w6tVqdGQsQ0FDEPdYHO-16" style="edgeStyle=orthogonalEdgeStyle;rounded=0;orthogonalLoop=1;jettySize=auto;html=1;exitX=1;exitY=0.5;exitDx=0;exitDy=0;entryX=0;entryY=0.5;entryDx=0;entryDy=0;" edge="1" parent="0w6tVqdGQsQ0FDEPdYHO-1" source="0w6tVqdGQsQ0FDEPdYHO-8" target="0w6tVqdGQsQ0FDEPdYHO-15">
          <mxGeometry relative="1" as="geometry" />
        </mxCell>
        <mxCell id="0w6tVqdGQsQ0FDEPdYHO-8" value="Evaluator" style="rounded=1;whiteSpace=wrap;html=1;" vertex="1" parent="0w6tVqdGQsQ0FDEPdYHO-1">
          <mxGeometry x="440" y="160" width="120" height="60" as="geometry" />
        </mxCell>
        <mxCell id="0w6tVqdGQsQ0FDEPdYHO-15" value="Deploy" style="rounded=1;whiteSpace=wrap;html=1;" vertex="1" parent="0w6tVqdGQsQ0FDEPdYHO-1">
          <mxGeometry x="600" y="160" width="120" height="60" as="geometry" />
        </mxCell>
        <mxCell id="0w6tVqdGQsQ0FDEPdYHO-17" value="Online learning pipeline" style="text;html=1;strokeColor=none;fillColor=none;align=center;verticalAlign=middle;whiteSpace=wrap;rounded=0;" vertex="1" parent="0w6tVqdGQsQ0FDEPdYHO-1">
          <mxGeometry x="600" width="160" height="30" as="geometry" />
        </mxCell>
        <mxCell id="0w6tVqdGQsQ0FDEPdYHO-9" style="edgeStyle=orthogonalEdgeStyle;rounded=0;orthogonalLoop=1;jettySize=auto;html=1;exitX=0.5;exitY=1;exitDx=0;exitDy=0;entryX=0.5;entryY=0;entryDx=0;entryDy=0;" edge="1" parent="1" source="0w6tVqdGQsQ0FDEPdYHO-2" target="0w6tVqdGQsQ0FDEPdYHO-3">
          <mxGeometry relative="1" as="geometry" />
        </mxCell>
        <mxCell id="0w6tVqdGQsQ0FDEPdYHO-2" value="Data source" style="rounded=1;whiteSpace=wrap;html=1;" vertex="1" parent="1">
          <mxGeometry x="80" y="40" width="120" height="60" as="geometry" />
        </mxCell>
        <mxCell id="0w6tVqdGQsQ0FDEPdYHO-18" value="" style="swimlane;startSize=0;" vertex="1" parent="1">
          <mxGeometry x="200" y="480" width="440" height="400" as="geometry" />
        </mxCell>
        <mxCell id="0w6tVqdGQsQ0FDEPdYHO-35" style="edgeStyle=orthogonalEdgeStyle;rounded=0;orthogonalLoop=1;jettySize=auto;html=1;exitX=0.5;exitY=1;exitDx=0;exitDy=0;entryX=0.5;entryY=0;entryDx=0;entryDy=0;" edge="1" parent="0w6tVqdGQsQ0FDEPdYHO-18" source="0w6tVqdGQsQ0FDEPdYHO-19" target="0w6tVqdGQsQ0FDEPdYHO-20">
          <mxGeometry relative="1" as="geometry" />
        </mxCell>
        <mxCell id="0w6tVqdGQsQ0FDEPdYHO-19" value="Trained ML model" style="rounded=1;whiteSpace=wrap;html=1;" vertex="1" parent="0w6tVqdGQsQ0FDEPdYHO-18">
          <mxGeometry x="280" y="40" width="120" height="60" as="geometry" />
        </mxCell>
        <mxCell id="0w6tVqdGQsQ0FDEPdYHO-36" style="edgeStyle=orthogonalEdgeStyle;rounded=0;orthogonalLoop=1;jettySize=auto;html=1;exitX=0.5;exitY=1;exitDx=0;exitDy=0;entryX=0.5;entryY=0;entryDx=0;entryDy=0;" edge="1" parent="0w6tVqdGQsQ0FDEPdYHO-18" source="0w6tVqdGQsQ0FDEPdYHO-20" target="0w6tVqdGQsQ0FDEPdYHO-21">
          <mxGeometry relative="1" as="geometry" />
        </mxCell>
        <mxCell id="0w6tVqdGQsQ0FDEPdYHO-39" style="edgeStyle=orthogonalEdgeStyle;rounded=0;orthogonalLoop=1;jettySize=auto;html=1;exitX=0.5;exitY=0;exitDx=0;exitDy=0;entryX=0.5;entryY=1;entryDx=0;entryDy=0;" edge="1" parent="0w6tVqdGQsQ0FDEPdYHO-18" source="0w6tVqdGQsQ0FDEPdYHO-20" target="0w6tVqdGQsQ0FDEPdYHO-19">
          <mxGeometry relative="1" as="geometry" />
        </mxCell>
        <mxCell id="0w6tVqdGQsQ0FDEPdYHO-20" value="Ranking service" style="rounded=1;whiteSpace=wrap;html=1;" vertex="1" parent="0w6tVqdGQsQ0FDEPdYHO-18">
          <mxGeometry x="280" y="160" width="120" height="60" as="geometry" />
        </mxCell>
        <mxCell id="0w6tVqdGQsQ0FDEPdYHO-40" style="edgeStyle=orthogonalEdgeStyle;rounded=0;orthogonalLoop=1;jettySize=auto;html=1;exitX=0.5;exitY=0;exitDx=0;exitDy=0;" edge="1" parent="0w6tVqdGQsQ0FDEPdYHO-18" source="0w6tVqdGQsQ0FDEPdYHO-21" target="0w6tVqdGQsQ0FDEPdYHO-20">
          <mxGeometry relative="1" as="geometry" />
        </mxCell>
        <mxCell id="0w6tVqdGQsQ0FDEPdYHO-21" value="Feature computation" style="rounded=1;whiteSpace=wrap;html=1;" vertex="1" parent="0w6tVqdGQsQ0FDEPdYHO-18">
          <mxGeometry x="280" y="280" width="120" height="60" as="geometry" />
        </mxCell>
        <mxCell id="0w6tVqdGQsQ0FDEPdYHO-33" style="edgeStyle=orthogonalEdgeStyle;rounded=0;orthogonalLoop=1;jettySize=auto;html=1;exitX=0.5;exitY=1;exitDx=0;exitDy=0;entryX=0.5;entryY=0;entryDx=0;entryDy=0;" edge="1" parent="0w6tVqdGQsQ0FDEPdYHO-18" source="0w6tVqdGQsQ0FDEPdYHO-24" target="0w6tVqdGQsQ0FDEPdYHO-28">
          <mxGeometry relative="1" as="geometry" />
        </mxCell>
        <mxCell id="0w6tVqdGQsQ0FDEPdYHO-24" value="Events filtering" style="rounded=1;whiteSpace=wrap;html=1;" vertex="1" parent="0w6tVqdGQsQ0FDEPdYHO-18">
          <mxGeometry x="80" y="160" width="120" height="60" as="geometry" />
        </mxCell>
        <mxCell id="0w6tVqdGQsQ0FDEPdYHO-31" style="edgeStyle=orthogonalEdgeStyle;rounded=0;orthogonalLoop=1;jettySize=auto;html=1;exitX=0.5;exitY=1;exitDx=0;exitDy=0;entryX=0.5;entryY=0;entryDx=0;entryDy=0;" edge="1" parent="0w6tVqdGQsQ0FDEPdYHO-18" source="0w6tVqdGQsQ0FDEPdYHO-25" target="0w6tVqdGQsQ0FDEPdYHO-24">
          <mxGeometry relative="1" as="geometry" />
        </mxCell>
        <mxCell id="0w6tVqdGQsQ0FDEPdYHO-25" value="Events data" style="rounded=1;whiteSpace=wrap;html=1;" vertex="1" parent="0w6tVqdGQsQ0FDEPdYHO-18">
          <mxGeometry x="80" y="40" width="120" height="60" as="geometry" />
        </mxCell>
        <mxCell id="0w6tVqdGQsQ0FDEPdYHO-34" style="edgeStyle=orthogonalEdgeStyle;rounded=0;orthogonalLoop=1;jettySize=auto;html=1;exitX=1;exitY=0.5;exitDx=0;exitDy=0;entryX=0;entryY=0.5;entryDx=0;entryDy=0;" edge="1" parent="0w6tVqdGQsQ0FDEPdYHO-18" source="0w6tVqdGQsQ0FDEPdYHO-28" target="0w6tVqdGQsQ0FDEPdYHO-20">
          <mxGeometry relative="1" as="geometry" />
        </mxCell>
        <mxCell id="0w6tVqdGQsQ0FDEPdYHO-28" value="Candidate events" style="rounded=1;whiteSpace=wrap;html=1;" vertex="1" parent="0w6tVqdGQsQ0FDEPdYHO-18">
          <mxGeometry x="80" y="280" width="120" height="60" as="geometry" />
        </mxCell>
        <mxCell id="0w6tVqdGQsQ0FDEPdYHO-42" value="Prediction pipeline" style="text;html=1;strokeColor=none;fillColor=none;align=center;verticalAlign=middle;whiteSpace=wrap;rounded=0;" vertex="1" parent="0w6tVqdGQsQ0FDEPdYHO-18">
          <mxGeometry width="120" height="30" as="geometry" />
        </mxCell>
        <mxCell id="0w6tVqdGQsQ0FDEPdYHO-37" style="edgeStyle=orthogonalEdgeStyle;rounded=0;orthogonalLoop=1;jettySize=auto;html=1;exitX=0.5;exitY=0;exitDx=0;exitDy=0;entryX=0.25;entryY=1;entryDx=0;entryDy=0;" edge="1" parent="1" source="0w6tVqdGQsQ0FDEPdYHO-22" target="0w6tVqdGQsQ0FDEPdYHO-21">
          <mxGeometry relative="1" as="geometry">
            <Array as="points">
              <mxPoint x="410" y="840" />
              <mxPoint x="510" y="840" />
            </Array>
          </mxGeometry>
        </mxCell>
        <mxCell id="0w6tVqdGQsQ0FDEPdYHO-22" value="Feature store" style="rounded=1;whiteSpace=wrap;html=1;" vertex="1" parent="1">
          <mxGeometry x="350" y="920" width="120" height="60" as="geometry" />
        </mxCell>
        <mxCell id="0w6tVqdGQsQ0FDEPdYHO-38" style="edgeStyle=orthogonalEdgeStyle;rounded=0;orthogonalLoop=1;jettySize=auto;html=1;exitX=0.5;exitY=0;exitDx=0;exitDy=0;entryX=0.75;entryY=1;entryDx=0;entryDy=0;" edge="1" parent="1" source="0w6tVqdGQsQ0FDEPdYHO-23" target="0w6tVqdGQsQ0FDEPdYHO-21">
          <mxGeometry relative="1" as="geometry">
            <Array as="points">
              <mxPoint x="660" y="840" />
              <mxPoint x="570" y="840" />
            </Array>
          </mxGeometry>
        </mxCell>
        <mxCell id="0w6tVqdGQsQ0FDEPdYHO-23" value="Raw data" style="rounded=1;whiteSpace=wrap;html=1;" vertex="1" parent="1">
          <mxGeometry x="600" y="920" width="120" height="60" as="geometry" />
        </mxCell>
        <mxCell id="0w6tVqdGQsQ0FDEPdYHO-32" style="edgeStyle=orthogonalEdgeStyle;rounded=0;orthogonalLoop=1;jettySize=auto;html=1;exitX=1;exitY=0.5;exitDx=0;exitDy=0;entryX=0;entryY=0.5;entryDx=0;entryDy=0;" edge="1" parent="1" source="0w6tVqdGQsQ0FDEPdYHO-27" target="0w6tVqdGQsQ0FDEPdYHO-24">
          <mxGeometry relative="1" as="geometry" />
        </mxCell>
        <mxCell id="0w6tVqdGQsQ0FDEPdYHO-27" value="User" style="rounded=1;whiteSpace=wrap;html=1;" vertex="1" parent="1">
          <mxGeometry x="40" y="640" width="120" height="60" as="geometry" />
        </mxCell>
        <mxCell id="0w6tVqdGQsQ0FDEPdYHO-29" value="Top k events" style="rounded=1;whiteSpace=wrap;html=1;" vertex="1" parent="1">
          <mxGeometry x="680" y="640" width="120" height="60" as="geometry" />
        </mxCell>
        <mxCell id="0w6tVqdGQsQ0FDEPdYHO-30" style="edgeStyle=orthogonalEdgeStyle;rounded=0;orthogonalLoop=1;jettySize=auto;html=1;exitX=1;exitY=0.5;exitDx=0;exitDy=0;entryX=0;entryY=0.5;entryDx=0;entryDy=0;" edge="1" parent="1" source="0w6tVqdGQsQ0FDEPdYHO-20" target="0w6tVqdGQsQ0FDEPdYHO-29">
          <mxGeometry relative="1" as="geometry" />
        </mxCell>
        <mxCell id="0w6tVqdGQsQ0FDEPdYHO-41" style="edgeStyle=orthogonalEdgeStyle;rounded=0;orthogonalLoop=1;jettySize=auto;html=1;exitX=0.5;exitY=1;exitDx=0;exitDy=0;entryX=0.5;entryY=0;entryDx=0;entryDy=0;" edge="1" parent="1" source="0w6tVqdGQsQ0FDEPdYHO-15" target="0w6tVqdGQsQ0FDEPdYHO-19">
          <mxGeometry relative="1" as="geometry" />
        </mxCell>
      </root>
    </mxGraphModel>
  </diagram>
</mxfile>
